<svg xmlns="http://www.w3.org/2000/svg" xmlns:xlink="http://www.w3.org/1999/xlink" width="75.75" viewBox="0 0 75.75 75" height="75" version="1.0"><defs><clipPath id="d"><path d="M 22 22 L 37.25 22 L 37.25 37 L 22 37 Z M 22 22"/></clipPath><clipPath id="c"><path d="M0 0H38V38H0z"/></clipPath><filter x="0%" y="0%" width="100%" xlink:type="simple" xlink:actuate="onLoad" height="100%" id="a" xlink:show="other"><feColorMatrix values="0 0 0 0 1 0 0 0 0 1 0 0 0 0 1 0 0 0 1 0" color-interpolation-filters="sRGB"/></filter><mask id="b"><g filter="url(#a)"><path fill-opacity=".498" d="M-7.575 -7.5H83.325V82.5H-7.575z"/></g></mask></defs><g mask="url(#b)"><g><g clip-path="url(#c)" transform="translate(19 19)"><path d="M 15.675781 29.59375 C 15.101562 29.59375 14.53125 29.558594 13.960938 29.488281 C 13.390625 29.417969 12.828125 29.316406 12.269531 29.175781 C 11.710938 29.035156 11.164062 28.863281 10.628906 28.65625 C 10.09375 28.449219 9.570312 28.210938 9.066406 27.941406 C 8.558594 27.671875 8.070312 27.371094 7.601562 27.039062 C 7.128906 26.707031 6.683594 26.351562 6.257812 25.964844 C 5.832031 25.578125 5.429688 25.167969 5.054688 24.734375 C 4.679688 24.296875 4.332031 23.84375 4.011719 23.363281 C 3.695312 22.886719 3.40625 22.390625 3.148438 21.878906 C 2.890625 21.367188 2.664062 20.839844 2.46875 20.296875 C 2.277344 19.757812 2.117188 19.207031 1.988281 18.644531 C 1.863281 18.085938 1.773438 17.519531 1.714844 16.945312 C 1.660156 16.375 1.640625 15.800781 1.652344 15.226562 C 1.667969 14.652344 1.714844 14.082031 1.800781 13.515625 C 1.886719 12.945312 2.003906 12.386719 2.15625 11.832031 C 2.308594 11.277344 2.496094 10.734375 2.71875 10.203125 C 2.9375 9.675781 3.1875 9.160156 3.472656 8.660156 C 3.753906 8.160156 4.066406 7.679688 4.410156 7.21875 C 4.753906 6.757812 5.121094 6.316406 5.519531 5.902344 C 5.914062 5.484375 6.335938 5.09375 6.777344 4.730469 C 7.222656 4.367188 7.6875 4.03125 8.171875 3.722656 C 8.660156 3.417969 9.160156 3.140625 9.679688 2.894531 C 10.199219 2.648438 10.730469 2.4375 11.277344 2.257812 C 11.824219 2.078125 12.378906 1.929688 12.941406 1.820312 C 13.503906 1.707031 14.074219 1.628906 14.644531 1.589844 C 15.21875 1.546875 15.792969 1.539062 16.367188 1.566406 C 16.941406 1.597656 17.507812 1.660156 18.074219 1.757812 C 18.640625 1.855469 19.199219 1.988281 19.75 2.15625 C 20.296875 2.324219 20.835938 2.523438 21.359375 2.757812 C 21.886719 2.988281 22.394531 3.253906 22.886719 3.550781 C 23.378906 3.84375 23.851562 4.171875 24.304688 4.523438 C 24.757812 4.878906 25.1875 5.257812 25.59375 5.664062 C 26.082031 6.152344 26.53125 6.671875 26.941406 7.226562 C 27.351562 7.78125 27.722656 8.359375 28.046875 8.96875 C 28.371094 9.578125 28.652344 10.207031 28.882812 10.855469 C 29.117188 11.503906 29.300781 12.167969 29.433594 12.84375 C 29.570312 13.519531 29.652344 14.203125 29.6875 14.890625 C 29.722656 15.578125 29.703125 16.265625 29.636719 16.953125 C 29.570312 17.640625 29.453125 18.316406 29.285156 18.984375 C 29.117188 19.65625 28.902344 20.308594 28.636719 20.945312 C 28.371094 21.582031 28.0625 22.195312 27.707031 22.789062 C 27.355469 23.378906 26.957031 23.941406 26.519531 24.472656 C 26.082031 25.007812 25.609375 25.503906 25.097656 25.96875 C 24.585938 26.429688 24.042969 26.855469 23.46875 27.238281 C 22.894531 27.621094 22.296875 27.957031 21.675781 28.253906 C 21.050781 28.546875 20.410156 28.792969 19.75 28.992188 C 19.089844 29.195312 18.417969 29.34375 17.734375 29.445312 C 17.054688 29.546875 16.367188 29.59375 15.675781 29.59375 Z M 15.675781 4.640625 C 15.257812 4.640625 14.84375 4.660156 14.425781 4.707031 C 14.011719 4.753906 13.597656 4.828125 13.191406 4.921875 C 12.785156 5.015625 12.382812 5.132812 11.988281 5.273438 C 11.59375 5.410156 11.210938 5.574219 10.832031 5.757812 C 10.457031 5.941406 10.09375 6.148438 9.742188 6.375 C 9.390625 6.601562 9.050781 6.84375 8.726562 7.109375 C 8.40625 7.375 8.097656 7.65625 7.804688 7.957031 C 7.515625 8.257812 7.242188 8.574219 6.984375 8.90625 C 6.730469 9.238281 6.496094 9.582031 6.277344 9.941406 C 6.0625 10.296875 5.867188 10.667969 5.695312 11.050781 C 5.523438 11.429688 5.371094 11.820312 5.242188 12.21875 C 5.113281 12.617188 5.007812 13.019531 4.925781 13.429688 C 4.84375 13.839844 4.785156 14.253906 4.75 14.671875 C 4.714844 15.085938 4.707031 15.503906 4.71875 15.921875 C 4.730469 16.339844 4.769531 16.757812 4.828125 17.171875 C 4.890625 17.585938 4.972656 17.996094 5.082031 18.398438 C 5.191406 18.804688 5.320312 19.199219 5.472656 19.589844 C 5.628906 19.980469 5.800781 20.359375 6 20.726562 C 6.195312 21.097656 6.414062 21.453125 6.652344 21.796875 C 6.890625 22.140625 7.144531 22.472656 7.421875 22.785156 C 7.695312 23.101562 7.988281 23.398438 8.300781 23.679688 C 8.609375 23.960938 8.933594 24.222656 9.273438 24.46875 C 9.613281 24.710938 9.964844 24.933594 10.332031 25.140625 C 10.699219 25.34375 11.074219 25.523438 11.460938 25.683594 C 11.847656 25.84375 12.242188 25.984375 12.644531 26.097656 C 13.042969 26.214844 13.453125 26.304688 13.863281 26.375 C 14.277344 26.441406 14.691406 26.484375 15.109375 26.507812 C 15.527344 26.527344 15.945312 26.523438 16.363281 26.496094 C 16.78125 26.46875 17.195312 26.417969 17.609375 26.34375 C 18.019531 26.269531 18.425781 26.171875 18.824219 26.050781 C 19.226562 25.929688 19.617188 25.785156 20.003906 25.617188 C 20.386719 25.453125 20.757812 25.265625 21.121094 25.054688 C 21.484375 24.847656 21.832031 24.617188 22.167969 24.367188 C 22.503906 24.117188 22.828125 23.851562 23.132812 23.566406 C 23.4375 23.277344 23.726562 22.976562 23.996094 22.65625 C 24.265625 22.339844 24.519531 22.003906 24.75 21.65625 C 24.984375 21.308594 25.195312 20.949219 25.386719 20.578125 C 25.578125 20.203125 25.746094 19.824219 25.894531 19.429688 C 26.039062 19.039062 26.164062 18.640625 26.265625 18.234375 C 26.367188 17.828125 26.445312 17.417969 26.5 17.003906 C 26.554688 16.589844 26.585938 16.171875 26.59375 15.753906 C 26.597656 15.335938 26.582031 14.917969 26.539062 14.503906 C 26.5 14.085938 26.433594 13.671875 26.34375 13.265625 C 26.257812 12.855469 26.144531 12.453125 26.011719 12.058594 C 25.875 11.660156 25.71875 11.273438 25.539062 10.894531 C 25.359375 10.515625 25.160156 10.152344 24.9375 9.796875 C 24.71875 9.441406 24.476562 9.097656 24.214844 8.773438 C 23.957031 8.445312 23.679688 8.132812 23.382812 7.835938 C 22.359375 6.816406 21.183594 6.027344 19.847656 5.472656 C 18.511719 4.917969 17.121094 4.640625 15.675781 4.640625 Z M 15.675781 4.640625"/><g clip-path="url(#d)"><path d="M 35.554688 37 C 35.128906 36.996094 34.769531 36.84375 34.46875 36.542969 L 23.414062 25.496094 C 23.269531 25.351562 23.15625 25.183594 23.078125 24.996094 C 23 24.804688 22.960938 24.609375 22.960938 24.40625 C 22.960938 24.199219 23 24.003906 23.078125 23.816406 C 23.15625 23.625 23.269531 23.460938 23.414062 23.316406 C 23.558594 23.171875 23.722656 23.058594 23.914062 22.980469 C 24.101562 22.902344 24.296875 22.863281 24.503906 22.863281 C 24.707031 22.863281 24.902344 22.902344 25.09375 22.980469 C 25.28125 23.058594 25.449219 23.171875 25.59375 23.316406 L 36.640625 34.371094 C 36.859375 34.589844 37 34.855469 37.058594 35.160156 C 37.121094 35.464844 37.089844 35.757812 36.972656 36.046875 C 36.855469 36.332031 36.664062 36.5625 36.40625 36.738281 C 36.148438 36.910156 35.867188 36.996094 35.554688 37 Z M 35.554688 37"/></g></g></g></g></svg>